<svg xmlns="http://www.w3.org/2000/svg" viewBox="0 0 512 512" width="100%" height="100%">
  <defs>
    <linearGradient id="bg-grad" x1="0%" y1="0%" x2="100%" y2="100%">
      <stop offset="0%" stop-color="#1A1829" />
      <stop offset="100%" stop-color="#0F0E16" />
    </linearGradient>

    <linearGradient id="main-grad" x1="0%" y1="0%" x2="100%" y2="100%">
      <stop offset="0%" stop-color="#9A66FF" />
      <stop offset="50%" stop-color="#7B3CE1" />
      <stop offset="100%" stop-color="#4B18A5" />
    </linearGradient>

    <linearGradient id="white-grad" x1="0%" y1="0%" x2="100%" y2="0%">
      <stop offset="0%" stop-color="#FFFFFF" />
      <stop offset="100%" stop-color="#DCD4F7" />
    </linearGradient>

    <filter id="shadow" x="-20%" y="-20%" width="140%" height="140%">
      <feDropShadow dx="0" dy="6" stdDeviation="10" flood-color="#000000" flood-opacity="0.4" />
    </filter>
  </defs>

  <rect width="512" height="512" rx="110" fill="url(#bg-grad)" />

  <g transform="translate(0, 5)">
    <path d="
        M 100 145 
        L 256 80 
        L 410 145 
        V 230 
        H 370 
        V 175 
        L 256 125 
        L 140 175 
        V 315 
        L 100 350 
        Z" 
        fill="url(#main-grad)" />

    <path d="
        M 160 310 
        C 200 320, 312 320, 352 310 
        C 330 330, 310 360, 340 380 
        L 256 420 
        L 172 380 
        C 202 360, 182 330, 160 310 
        Z" 
        fill="url(#main-grad)" />

    <path d="
        M 170 195 
        L 342 195 
        L 332 225 
        L 280 225 
        Q 270 225 270 240 
        L 270 285 
        L 242 285 
        L 242 240 
        Q 242 225 232 225 
        L 180 225 
        Z" 
        fill="url(#white-grad)" 
        filter="url(#shadow)" />

    <path d="M 325 252 L 435 258 L 325 264 A 6 6 0 0 1 325 252 Z" fill="url(#main-grad)" />
    <path d="M 345 282 L 420 288 L 345 294 A 6 6 0 0 1 345 282 Z" fill="url(#main-grad)" />
    <path d="M 355 312 L 405 318 L 355 324 A 6 6 0 0 1 355 312 Z" fill="url(#main-grad)" />
  </g>
</svg>